<?xml version="1.0" encoding="utf-8"?>
<!-- Generator: Adobe Illustrator 24.1.0, SVG Export Plug-In . SVG Version: 6.00 Build 0)  -->
<svg version="1.1" xmlns="http://www.w3.org/2000/svg" xmlns:xlink="http://www.w3.org/1999/xlink" x="0px" y="0px"
	 viewBox="0 0 374.44 198.33" style="enable-background:new 0 0 374.44 198.33;" xml:space="preserve">
<style type="text/css">
	.Arched_x0020_Green{fill:url(#SVGID_1_);stroke:#FFFFFF;stroke-width:0.25;stroke-miterlimit:1;}
	.st0{display:none;}
	.st1{display:inline;fill:#494244;}
	.st2{fill:#FFFFFF;stroke:#000000;stroke-width:4;}
	.st3{fill:#FFFFFF;stroke:#000000;stroke-width:3;}
	.st4{fill:#FFFFFF;stroke:#000000;stroke-width:3;stroke-linecap:round;stroke-miterlimit:10;}
	.st5{fill:#FFFFFF;stroke:#000000;stroke-width:2;stroke-linecap:round;stroke-miterlimit:10;}
	.st6{fill:#FFFFFF;stroke:#FFFFFF;stroke-width:2;stroke-linecap:round;stroke-miterlimit:10;}
	.st7{fill:none;stroke:#000000;stroke-width:2;stroke-linecap:round;stroke-miterlimit:10;}
	.st8{fill:none;stroke:#000000;stroke-linecap:round;stroke-miterlimit:10;}
	.st9{stroke:#000000;stroke-width:2;stroke-linecap:round;stroke-miterlimit:10;}
	.st10{fill:#FFFFFF;}
	.st11{fill:#FFFFFF;stroke:#000000;stroke-width:3;stroke-miterlimit:10;}
	.st12{fill:#FFFFFF;stroke:#000000;stroke-linecap:round;}
	.st13{fill:#FFFFFF;stroke:#000000;stroke-linecap:round;stroke-miterlimit:10;}
	.st14{fill:none;stroke:#000000;stroke-width:3;stroke-linecap:round;stroke-miterlimit:10;}
	.st15{stroke:#000000;stroke-width:6;stroke-miterlimit:10;}
	.st16{fill:#FFFFFF;stroke:#FFFFFF;stroke-miterlimit:10;}
	.st17{fill:#FFFFFF;stroke:#FFFFFF;stroke-width:0.5;stroke-miterlimit:10;}
</style>
<linearGradient id="SVGID_1_" gradientUnits="userSpaceOnUse" x1="-18.2222" y1="438.7783" x2="-17.5151" y2="438.0712">
	<stop  offset="0" style="stop-color:#1EAB4B"/>
	<stop  offset="0.9831" style="stop-color:#19361A"/>
</linearGradient>
<g id="BACKGROUND__x28_do_not_print_x29_" class="st0">
	<rect x="13.65" y="6.11" class="st1" width="351.22" height="178.89"/>
</g>
<g id="circle">
	<g>
		<path class="st2" d="M262.07,171.09c-39.59,0-71.8-32.21-71.8-71.8c0-39.59,32.21-71.8,71.8-71.8c39.59,0,71.8,32.21,71.8,71.8
			C333.86,138.89,301.66,171.09,262.07,171.09z"/>
		
			<ellipse transform="matrix(0.1091 -0.994 0.994 0.1091 134.7654 348.9624)" class="st2" cx="262.07" cy="99.3" rx="65.96" ry="65.96"/>
	</g>
</g>
<g id="character">
	<path class="st3" d="M310.83,121.05c0-5.09,5.31,6.62-3.92,26.62"/>
	<path class="st3" d="M341.52,108.08c0,13.05-10.58,23.63-23.64,23.63c-13.06,0-23.64-10.58-23.64-23.63c0-4.74-0.5-6.34,0.78-8.78
		c2.25-4.3,6.89-3.73,11.96,2.87C314.21,111.57,341.52,95.03,341.52,108.08z"/>
	<path class="st4" d="M325.9,89.22c0,2.64-2.18,4.77-4.87,4.77c-2.69,0-4.87-2.14-4.87-4.77c0-2.64,2.18-4.77,4.87-4.77
		C323.72,84.45,325.9,86.59,325.9,89.22z"/>
	<path class="st4" d="M331.57,101.11c0,6.51-3.45,11.78-7.72,11.78c-4.26,0-7.72-5.28-7.72-11.78c0-6.51,3.45-11.78,7.72-11.78
		C328.11,89.33,331.57,94.6,331.57,101.11z"/>
	<g>
		<path class="st5" d="M354.92,63.66c0,4.58-3.69,8.29-8.23,8.29c-4.55,0-8.23-3.71-8.23-8.29c0-4.58,3.69-8.29,8.23-8.29
			C351.23,55.37,354.92,59.08,354.92,63.66z"/>
		<path class="st5" d="M345.41,60.02c0,3.23-2.34,5.85-5.23,5.85s-5.23-2.62-5.23-5.85c0-3.23,2.34-5.85,5.23-5.85
			S345.41,56.79,345.41,60.02z"/>
		<path class="st5" d="M340.18,63.82c0,6.14-4.83,11.12-10.79,11.12c-5.96,0-10.79-4.98-10.79-11.12c0-6.14,4.83-11.12,10.79-11.12
			C335.34,52.7,340.18,57.68,340.18,63.82z"/>
		<path class="st5" d="M325.84,79.59c-6.09,0-11.03-3.33-11.03-7.43c0-4.1,4.83-8.5,11.03-7.43
			C331.84,65.77,331.93,79.59,325.84,79.59z"/>
		<path class="st6" d="M352.18,68.26c1.44,5.22-3.72,9.99-12.93,12.53c-9.2,2.54-17.83,0.37-19.28-4.86
			c-1.44-5.22,4.85-11.52,14.05-14.06C343.23,59.32,350.73,63.03,352.18,68.26z"/>
	</g>
	<path class="st4" d="M311.74,71.71c1.04,17.02-11.97,30.45-30.84,30.45c-18.87,0-30.77-9.29-30.77-26.35
		c0-12.25,15.86-30.1-9.49-18.3c1.76-24.95,24.41-32.87,28.73-32.87c21.77-0.7,36.22,17.62,32.84,23.31
		C295.29,59.56,311.06,60.59,311.74,71.71z"/>
	<path class="st7" d="M274.4,80.23c3.17-0.9,8.24-1.37,9.66-5.97"/>
	<path class="st7" d="M281.72,77.58c3.85,2.24,13.98,3.88,20.35-3.32"/>
	<path class="st7" d="M279.23,79.59c0,6.97,20.81,29.04,24.96-0.22"/>
	<path class="st8" d="M284.05,87.79c5.64-9.31,20.15-0.44,17.53-1.65"/>
	<path class="st5" d="M291.48,63.46c0,0-5.76-10.81,2.75-12.22c6.42-1.07,6.12,5.02,6.27,5.58c0.15,0.56-1.24,6.64-1.24,6.64"/>
	<path class="st9" d="M294.06,62.9c0.99,0-3.5,0.69-3.17-4.38c0.19-2.88-1.59-5.21,2.19-5.21c2.13,0,3.63,2.36,3.86,5.23
		C297.39,64.19,291.93,62.9,294.06,62.9"/>
	<path class="st10" d="M293.58,57.27c0,0.69-0.47,1.25-1.05,1.25l0,0c-0.58,0-1.05-0.56-1.05-1.25v-0.89c0-0.69,0.47-1.25,1.05-1.25
		l0,0c0.58,0,1.05,0.56,1.05,1.25V57.27z"/>
	<g>
		<path class="st5" d="M275.92,63.82c0,0-7.34-9.68,2.88-11.12c7.73-1.08,7.36,5.1,7.55,5.67c0.18,0.57-0.59,6.8-0.09,7.42"/>
		<path class="st9" d="M281.85,59.22c0.54,5.66-6.03,4.37-3.46,4.37c1.19,0-3.81-1.51-3.81-4.39c0-2.9-1.91-5.22,2.63-5.22
			C279.77,53.97,281.57,56.34,281.85,59.22z"/>
	</g>
	<path class="st10" d="M278.03,58.82c0,0.7-0.57,1.26-1.26,1.26l0,0c-0.7,0-1.26-0.57-1.26-1.26v-0.9c0-0.7,0.57-1.26,1.26-1.26l0,0
		c0.7,0,1.26,0.57,1.26,1.26V58.82z"/>
	<path class="st5" d="M278.66,41.2c1.02,0.17,1.98,1.29,2.6,4.31c-3.08-0.44-6.5,1.23-9.88,6.77
		C268.6,46.56,273.49,40.33,278.66,41.2z"/>
	<path class="st5" d="M289.31,43.37c-1.03,0.45-1.46,4.23,0,4.99c3.12-1.25,4.3-0.95,9.71,1.75
		C298.49,43.21,294.53,41.11,289.31,43.37z"/>
	<path class="st5" d="M269.37,69.74c0,0,1.53-8.91,16.89-2.95c2.53-6.46,25.29-5.4,8.04,4.25"/>
	<g>
		<path class="st11" d="M324.06,87.4c0,0-5.47-3.36-5.47-6.17c3.89-12.66,16.86-19.32,31.82-15.36c13.05,3.46,5.1,14.36,5.1,14.36
			s6.84,22.72,6.16,24.7c-4.79,8.84-19,13.83-31.95,7.96C328.52,112.35,324.06,87.4,324.06,87.4z"/>
		<path class="st8" d="M324.73,87.4c0,0-0.41-5.13,4.15-7.81"/>
		<path class="st12" d="M345.73,75.53c0,0,6.68-1.27,9.19,5.6"/>
		<path class="st13" d="M332.86,110.45c-1.43-0.59,8.66-12.33,24.18-6.81"/>
		<path class="st8" d="M331.02,106.37c0,0-3.47-17.25-4.15-19.7c-0.68-2.45,3.95-5.66,4.29-4.63c1.2,3.63,4.87,19,4.87,19"/>
		<path class="st8" d="M339.85,99.3l-4.98-18.07c-0.66-2.38,7.45-4.52,7.93-2.74l5.42,20.24"/>
		<path class="st8" d="M357.99,100.43c0,0-4.66-17.53-5.31-20.01c-0.65-2.47-6.54-2.65-6.32-1.58c0.79,3.77,4.77,19.28,4.77,19.28"
			/>
	</g>
	<path class="st14" d="M228.03,155.81c-18.1-33.77,1.39-37.71-3.5-49.5"/>
	<path class="st7" d="M202.28,129.17c7.94-3.32,11.27-13.94,19.75-8.46"/>
	<path class="st11" d="M246.11,104.6c0-58.69-47.92,11.19-47.92,11.19"/>
	<path class="st14" d="M247.15,134.14c-3.29,0-23.05,15.68,4.29,21.67c33.52-10.15,9.78-36.63,9.01-37.52"/>
	<path class="st4" d="M267.35,100.24c0,0-4.5-6.6-14.69,0c-10.2,6.6-25.34,16-11.69,26.67c1.51,1.18,5,3.8,7.55,7.01
		c1.51,1.91,2.69,4.02,2.92,6.17c0.62,5.76-4.48,6.67-4.48,6.67"/>
	<path id="mask_1_" class="st10" d="M297.74,106.37c17.76,9.67,13.84,32.08,8.55,38.75c0,0-30.58-36.29-33.66-41.31
		c-3.78-6.15,5.62-9.28,12.4-9.28C291.82,94.54,290.99,102.69,297.74,106.37z"/>
</g>
<g id="black_text">
	<path class="st15" d="M176.25,101.3c-6.41,0-11.46,2.55-12.23,5.91c-0.25,1,0.03,1.87,0.45,2.78c-6.74,2.26-7.81-9.13-6.9-14.01
		c0.26-1.41,1.34-14.48,0-17c-0.6-1.13-6.36-1.33-7.82,0.86c-1.26,1.97-2.04,5.4-3.4,7.88c-1.07,1.97-3.6,0.97-4.51,1.44
		c-0.57,0.27-1.08,1.86-1.32,2.4c-0.64,1.45-1.52,3.54-3.14,3.78c-0.03-0.37-0.07-0.78-0.13-1.15c-0.27-1.28-0.24-2.5-1.76-3.04
		c-0.37,0.1-0.64,0.2-0.94,0.47c0.13-0.57,0.24-1.15,0.34-1.75l0.47-2.46c0.27-0.61,0.54-1.25,0.68-1.45
		c0.84-1.32,1.99-2.4,2.77-3.71c0.68-1.15,4.42-6.95,1.18-7.29c-0.71-0.07-1.35,0.13-1.92,0.51c-0.44,0.27-1.45,1.18-1.55,1.52
		c-0.03,0-0.81,0.98-1.01,1.32c-0.34,0.64-0.47,1.38-0.71,2.06c-0.54,1.76-1.35,3.34-1.62,5.16c-0.14,0.98-0.34,1.95-0.53,2.92
		c-0.05,0.06-0.1,0.12-0.14,0.16c-0.61,0.57-1.32,1.08-2.02,1.48c-0.3,0.17-0.57,0.37-0.88,0.51c0-0.3,0-0.61-0.07-0.88
		c-0.27-1.38,0.3-5,0.51-5.13c0.03-0.2-0.78-0.71-1.05-0.81c-0.47-0.24-1.15-0.2-1.72-0.2c-1.38,0-2.33,0.67-3.27,1.65
		c-0.98,1.08-1.55,2.43-1.89,3.81c-0.15,0.67-0.27,1.37-0.31,2.1c-1.43-1.73-2.81-3-3.66-2.8c-0.25,0.06-0.44-0.03-0.67,0.04
		c-0.02,0.04-0.05,0.08-0.07,0.12c-0.12,0.01-1.84-1.43-2.11-3.32c-0.27-1.92-2.28-2.73-3.95-1.92c-0.56,0.27-1.06,0.42-1.52,0.66
		c-0.48,0.2-0.92,0.42-1.32,0.87c-0.79,0.93-3.24,0.53-3.16,0.47c0.04-0.01,0.08-0.01,0.13-0.04c0.57-0.21,0.86-0.82,0.89-1.23
		c0.08-0.98-0.77-1.41-1.98-1.38c-0.96,0.02-1.81,0.26-2.5,0.64c-1.15,0.49-1.95,1.35-2.11,2.37c-0.1,0.59,0.06,1.52-0.2,1.89
		c-0.29,0.51-3.64,0.23-3.63-0.98c0.02-0.71,0.48-1.63-0.31-1.99c-0.41-0.19-1.62-0.17-1.99,0.17c0,0.03-0.06,0.1-0.1,0.14
		c-0.29,0.65-2.88-0.56-2.9-1.74c-0.64,0.11-1.76-0.38-2.29,0.04c-0.4,0.24-0.46,0.95-0.55,1.43c-0.31,1.39-2.76,0.39-2.56,0.25
		c0.03-0.2-0.79-0.69-1.06-0.79c-0.48-0.23-1.15-0.18-1.73-0.17c-1.17,0.02-2.02,0.52-2.81,1.27c-2.81-1.15-5.65-2.29-5.46-3.09
		c1.54-0.87,3.07-1.81,4.16-3.31c0.89-1.26,2.37-3.55,1.8-5.4c-0.64-1.91-2.73-1.78-4-1.01c-2.77,1.64-4.71,6.6-5.15,10.56
		c0,0-4.15,0.14-4.27-0.74c-0.24-2.12-1.07-5.15-0.71-7.55c0.23-0.21,0.47-0.45,0.66-0.75c0.69-1.23,1.2-3.06,0.14-3.51
		c-0.78-0.32-1.54,0.57-2.04,1.42c-0.49,0.89-0.74,1.84-0.86,2.78c-1.27,0.56-2.68,0.92-3.86,1.28c-1.21,0.36-4.75,2.72-3.41,5.8
		c0.32,0.77,1.41,1.53,3.08,0.59c1-0.56,4.37-0.99,4.39,0.33c0.02,1.35,0.28,2.63,0.34,3.98c-1.23,0.86-2.43,1.87-3.56,2.97
		c-1.79,1.75-4.63,5.35-1.63,7.46c1.15,0.81,2.44,5.75-2.59,9.2c-0.29,1.53-1.07,3.14-1.65,4.67l-0.29-3.72
		c-0.1-2.41,0.19-4.52-4.95-3.21c-0.68,0.15-3.41,4.27-3.21,5.72c-1.62-1.52-3.21-3.6-4.11-4.99c-1.07-1.75-1.94-3.58-3.3-5.25
		c-2.04-2.41-3.11-5.04-4.08-7.74c2.23-0.44,4.37-1.09,6.41-1.82c2.23-0.87,3.5-1.97,5.15-3.28c1.75-1.46,2.82-2.85,3.01-4.89
		c0.19-1.82-1.26-3.87-3.59-4.6c-3.01-0.95-6.31-1.1-9.52-0.66c-1.85,0.22-3.79,0.51-5.24,1.39c-1.55,0.95-4.27,2.33-5.05,3.72
		c-0.87,1.39-1.75,3.5-1.94,5.69c-0.49-0.29-0.97-0.58-1.46-0.95c-1.46-1.02-1.75-2.55-2.52-3.94c-0.78-1.31-2.62-2.19-3.2-0.58
		c-0.19,0.73-0.29,1.97-0.1,2.77c0.29,1.83,2.82,4.23,4.86,5.18c0.78,0.36,1.75,0.73,2.72,1.02c0,0.07,0,0.22,0.1,0.29
		c1.17,3.28,3.2,6.13,4.85,8.83c2.23,3.65,5.73,8.1,6.9,12.11c0.87,3.06,1.26,6.79-0.97,9.63c-1.46,1.68-9.75,2.11-9.13-2.7
		c3.29-0.49,3.5-2.12,3.5-4.45c0-1.39-0.1-1.75-1.65-2.63c-1.16-0.66-2.14-1.17-3.69-1.17c-3.69-0.15-6.99,0.95-9.32,3.07
		c-1.65,1.46-2.53,3.06-2.43,4.96c0.1,1.75,1.16,3.87,2.62,5.11c1.36,1.17,3.01,2.33,4.66,3.21c1.55,0.73,4.17,1.02,6.02,0.8
		c5.63,0,11.26-2.48,14.95-5.69c1.55-1.24,3.2-3.06,3.98-4.6c0.68-1.36,3.79-4.75,3.82-4.67c1.75,3.72,0.87,7.73,1.84,11.53
		c0.87,3.72,0.48,7.66,1.17,11.46c0.68,3.58,1.65,7.81,0.1,11.31c-1.65,3.65-6.51,6.79-10.58,2.7c-0.97-0.88-1.65-1.97-2.14-3.07
		c-0.19-0.51-0.29-2.19-1.07-2.41c-2.14-0.73-0.78,2.99-0.58,3.5c1.75,3.14,5.73,7.22,10.87,5.11c5.54-2.26,8.93-7.73,9.42-12.18
		c0.29-3.07,0.39-6.57-0.39-9.56c-0.39-1.68,1.75-3.36,3.3-3.21c2.33,0.29,6.6-0.58,7.87-1.97c1.46-1.61,3.84-3.56,4.52-5.38
		c0.24-0.6,0.74-0.63,1.35-0.37c-0.03,0.76-0.06,1.51-0.12,2.25c-0.29,2.55,0,5.84,3.4,7.01c1.36,0.44,3.4,1.24,4.95,1.02
		c2.04-0.22,2.82-2.48,3.88-3.65c2.82-3.5,5.63-6.93,8.35-10.44c0.08-0.11,0.19-0.27,0.3-0.47c-0.12,1.37-0.21,2.75-0.21,4.19
		c0,2.85-0.87,5.76-0.68,8.54c0.19,1.17,2.14,2.63,3.98,1.9c1.55-0.66,1.26-3.5,1.36-4.67c0.48-3.43,0.78-7,1.46-10.36
		c0.87-3.79,4.56-1.46,4.95-0.8c0.39,0.88,5.15,1.68,6.21,1.09c1.16-0.58,1.75-2.77,2.23-3.72c0.4-0.79,2.59-0.48,4.69-0.22
		c-0.03,0.1-0.06,0.19-0.09,0.29c-0.87,3.28-0.58,6.93-0.87,10.29c-0.29,2.55,0,5.84,3.4,7.01c1.36,0.44,3.4,1.24,4.95,1.02
		c2.04-0.22,2.82-2.48,3.88-3.65c2.82-3.5,5.63-6.93,8.35-10.44c0.17-0.23,0.36-0.47,0.55-0.71c-0.87,5.46-1.22,11.02-0.85,16.47
		c0.1,1.9,0.19,4.52,1.75,6.28c1.65,1.9,4.08,1.02,6.51,1.6c5.83,1.39,7.19-6.5,9.23-9.71c2.72-4.52,4.56-9.71,6.12-14.52
		c0.38-1.23,0.39,6.93-0.29,7.52c-1.75,1.39-1.75,3.87,0.48,5.04c2.82,1.46,8.06,0.73,10.68-0.58c6.41-3.21,7.29-10.34,3.21-13.86
		c-8.82-7.62,6.21-10.51,2.04-7.59c-0.87,0.66-0.39,1.1,0.97,0.66c1.65-0.44,2.52-1.75,2.62-2.63
		C182.17,102.25,179.74,101.3,176.25,101.3z"/>
</g>
<g id="white_ko_text">
	<path class="st10" d="M49.63,81.6c-0.19,2.04-1.26,3.43-3.01,4.89c-1.65,1.31-2.91,2.41-5.15,3.28c-2.04,0.73-4.18,1.39-6.41,1.82
		c0.97,2.7,2.04,5.33,4.08,7.74c1.36,1.68,2.23,3.5,3.3,5.25c1.26,1.97,2.04,4.09,2.33,5.91c0.49,2.34,1.07,5.18,0.19,6.93
		c-0.78,1.53-2.43,3.36-3.98,4.6c-3.69,3.21-9.32,5.69-14.95,5.69c-1.85,0.22-4.47-0.07-6.02-0.8c-1.65-0.87-3.3-2.04-4.66-3.21
		c-1.46-1.24-2.52-3.36-2.62-5.11c-0.1-1.9,0.78-3.5,2.43-4.96c2.33-2.12,5.63-3.21,9.32-3.07c1.55,0,2.52,0.51,3.69,1.17
		c1.55,0.87,1.65,1.24,1.65,2.63c0,2.33-0.1,4.09-3.5,4.45c-1.07-0.29-1.36-0.87-1.07-1.68c0.29-1.02,1.65-1.97,0.97-3.14
		c-0.87-1.46-4.56-0.8-5.83,0c-1.75,1.24-1.55,3.87-1.26,5.47c0.19,1.39,1.17,2.63,2.13,3.79c1.46,1.68,3.4,2.41,6.12,2.04
		c2.62-0.36,6.6-2.12,8.06-3.79c2.23-2.85,1.84-6.57,0.97-9.63c-1.16-4.01-4.66-8.46-6.9-12.11c-1.65-2.7-3.69-5.55-4.85-8.83
		c-0.1-0.07-0.1-0.22-0.1-0.29c-0.97-0.29-1.94-0.66-2.72-1.02c-2.04-0.95-4.56-3.36-4.86-5.18c-0.19-0.8-0.1-2.04,0.1-2.77
		c0.58-1.61,2.43-0.73,3.2,0.58c0.78,1.39,1.07,2.92,2.52,3.94c0.49,0.36,0.97,0.66,1.46,0.95c0.19-2.19,1.07-4.3,1.94-5.69
		c0.78-1.39,3.5-2.77,5.05-3.72c1.46-0.88,3.4-1.17,5.24-1.39c3.2-0.44,6.5-0.29,9.52,0.66C48.37,77.73,49.83,79.77,49.63,81.6z
		 M38.37,79.19c-4.27,1.17-5.83,5.4-4.66,8.47L34,88.68c5.05-0.51,10.58-2.63,10.88-6.71C45.07,79.41,41.19,78.46,38.37,79.19z"/>
	<path class="st10" d="M71.81,112.97c0.1,2.48,0.97,5.11,0,7.52c-0.68,1.82-1.75,3.87-3.2,5.47c-1.26,1.39-5.53,2.26-7.87,1.97
		c-1.55-0.15-2.81-0.88-3.88-1.75c0.1,1.68,0.19,3.28,0.58,4.96c0.78,2.99,0.68,6.49,0.39,9.56c-0.49,4.45-3.88,9.92-9.42,12.18
		c-5.15,2.12-9.13-1.97-10.87-5.11c-0.19-0.51-1.55-4.23,0.58-3.5c0.78,0.22,0.87,1.9,1.07,2.41c0.49,1.1,1.16,2.19,2.14,3.07
		c4.08,4.09,8.93,0.95,10.58-2.7c1.55-3.5,0.58-7.73-0.1-11.31c-0.68-3.79-0.29-7.74-1.17-11.46c-0.97-3.79-0.1-7.81-1.84-11.53
		c-1.36-2.92-1.86-5.39-0.64-8.28c1.13-0.52,1.61-0.62,1.61-0.62c5.15-1.31,4.86,0.8,4.95,3.21l0.29,3.72
		c0.58-1.53,1.36-3.14,1.65-4.67c0.87-3.58,3.98-5.03,8.74-5.11c2.72-0.07,4.37,1.9,4.66,3.65
		C70.55,107.43,71.62,110.13,71.81,112.97z M63.85,116.48c-0.29-3.28-0.97-6.49-1.65-9.78c-0.19-0.87-0.68-3.28-2.62-2.12
		c-1.17,0.8-1.26,3.14-1.55,4.16c-0.39,1.24-0.78,2.7-1.26,3.94c-0.39,0.8-0.68,2.33-1.46,3.06c0.19,1.31,0.58,2.7,0.78,3.79
		l0.49,4.16c0.19,0.29,0.39,0.51,0.58,0.66c1.16,1.39,2.91,2.63,5.24,1.68C65.6,124.72,63.95,118.52,63.85,116.48z"/>
	<path class="st10" d="M98.83,110.57c-0.49,2.04-2.52,4.01-3.88,5.84c-2.72,3.5-5.53,6.93-8.35,10.44
		c-1.07,1.17-1.84,3.43-3.88,3.65c-1.55,0.22-3.59-0.58-4.95-1.02c-3.4-1.17-3.69-4.45-3.4-7.01c0.29-3.36,0-7,0.88-10.29
		c0.78-2.77,1.84-5.25,2.43-8.03c1.46-1.09,2.62-1.61,4.56-1.46c2.72,0.15,2.14,1.09,1.94,2.77c-0.29,2.26,0.2,4.31-0.58,6.57
		c-1.16,3.28-1.16,6.57-1.85,9.92c-0.19,0.88-1.75,4.74,0.19,5.18c1.26,0.29,2.33-1.39,2.91-1.97c2.52-2.92,4.86-5.98,7.28-9.05
		C93.2,114.8,96.5,109.47,98.83,110.57z M79.02,92.69"/>
	<path class="st10" d="M115.72,101.01c2.53,2.34,1.65,3.87,0.78,6.64c-0.58,1.53-1.16,2.92-1.94,4.45
		c-0.49,0.95-1.07,3.14-2.23,3.72c-1.07,0.58-5.83-0.22-6.21-1.09c-0.39-0.66,0.68-2.04,0.97-2.55c0.87-1.53,2.04-2.99,2.91-4.52
		c0.78-1.39,3.88-4.82,1.65-5.98c-1.94-1.09-4.66,0.66-5.73,1.75c-3.3,3.06-3.89,8.32-4.76,12.11c-0.68,3.36-0.97,6.93-1.46,10.36
		c-0.1,1.17,0.19,4.01-1.36,4.67c-1.84,0.73-3.79-0.73-3.98-1.9c-0.19-2.77,0.68-5.69,0.68-8.54c0-3.21,0.39-6.13,0.78-9.27
		c0.39-2.55,0.29-5.25-0.49-7.81c1.17-0.73,3.69-1.31,4.95-0.88c1.94,0.8,1.26,2.92,1.55,4.23c0.78-0.73,0.87-1.6,1.46-2.41
		C105.72,100.57,111.64,97.14,115.72,101.01z"/>
	<path class="st10" d="M142.75,110.57c-0.48,2.04-2.52,4.01-3.88,5.84c-2.72,3.5-5.53,6.93-8.35,10.44
		c-1.07,1.17-1.85,3.43-3.88,3.65c-1.55,0.22-3.59-0.58-4.95-1.02c-3.4-1.17-3.69-4.45-3.4-7.01c0.29-3.36,0-7,0.87-10.29
		c0.78-2.77,1.84-5.25,2.43-8.03c1.46-1.09,2.62-1.61,4.56-1.46c2.72,0.15,2.14,1.09,1.94,2.77c-0.29,2.26,0.19,4.31-0.58,6.57
		c-1.17,3.28-1.17,6.57-1.84,9.92c-0.19,0.88-1.75,4.74,0.19,5.18c1.26,0.29,2.33-1.39,2.91-1.97c2.52-2.92,4.86-5.98,7.28-9.05
		C137.12,114.8,140.42,109.47,142.75,110.57z"/>
	<path class="st10" d="M164.5,109.98c-0.39,2.12-1.75,3.94-2.33,5.84c-1.55,4.82-3.4,10-6.12,14.52c-2.04,3.21-3.4,11.09-9.23,9.71
		c-2.43-0.58-4.86,0.29-6.51-1.6c-1.55-1.75-1.65-4.38-1.75-6.28c-0.58-8.46,0.58-17.22,2.72-25.39c0.58-2.33,1.07-4.82,1.55-7.22
		l-2.23,0.44c-0.87,0.15-3.4,0.88-4.27,0.44c-0.87-0.44-0.1-3.06,0.78-3.21c2.23-0.59,4.37-1.02,6.5-1.39l0.49-2.12
		c0.58-1.97,1.17-4.01,2.23-5.98c1.36-2.48,2.14-5.91,3.4-7.88c1.46-2.19,4.95-3.94,7.48-1.39c1.46,1.53,0,4.3-0.78,5.84
		c-1.75,3.72-3.5,7.15-4.76,10.87c0.39,0,0.78-0.07,1.26-0.07c1.17,0,6.6-0.29,6.02,1.02c-0.39,1.02-5.15,1.75-8.35,2.19
		c-2.52,8.54-4.56,17.37-5.73,26.2c-0.48,3.43-2.23,11.02,2.43,12.48c3.01,0.95,3.98-2.63,4.66-4.23c1.85-4.16,4.27-8.24,5.73-12.48
		C158.48,118.16,160.32,109.11,164.5,109.98z"/>
	<path class="st16" d="M80.41,73.13c0.57,1.85-0.91,4.13-1.8,5.4c-1.09,1.51-2.62,2.44-4.16,3.31c-0.38,1.56-0.35,3.01-0.53,4.63
		c-0.14,1.72-0.31,3.65-0.11,5.4c0.16,1.52,0.07,3.78,1,4.98c0.97,1.2,1.89-0.12,2.98-0.5c1.47-0.52-1.64,2.15-0.75,1.39
		c0.34-0.29-0.45,0.73-1.63,0.85c-1.42,0.16-2.99-0.93-3.32-2.47c-0.33-1.41-0.59-3.1-0.82-4.58c-0.24-2.02-0.12-4.72-0.09-7.32
		l0-0.27c-1.23,0.8-2.47,1.49-3.74,2.19c0.1,2.06-0.03,4.12-0.84,5.86c-1.3,2.65-4.34,6.62-7.04,4.71c-3.01-2.11-0.17-5.7,1.63-7.45
		c1.13-1.1,2.33-2.1,3.56-2.97c-0.06-1.35-0.32-2.63-0.34-3.98c-0.02-1.32-0.39-3.27-0.38-4.55c0.02-0.81,0.01-1.62,0.06-2.4
		c-0.1,0.07-0.2,0.11-0.3,0.14c-1.24,0.6-2.52,0.92-3.72,1.55c-0.87,0.49-2.84,1.74-2.58,3.22c0.59,2.99,4.38-0.52,2.67-1.9
		c-0.31-0.3,0.69-0.89,0.97-0.29c0.49,1-0.11,3.34-1.11,3.9c-1.67,0.94-2.77,0.18-3.08-0.59c-1.34-3.08,2.2-5.44,3.41-5.8
		c1.17-0.36,2.59-0.72,3.86-1.28c0.12-0.95,0.37-1.9,0.86-2.78c0.49-0.85,1.25-1.74,2.04-1.42c1.05,0.45,0.55,2.29-0.14,3.51
		c-0.2,0.31-0.43,0.55-0.66,0.75c-0.36,2.4,0.47,5.43,0.71,7.55c0.12,0.88,0.23,1.79,0.32,2.73l1.17-0.63l2.78-1.37
		c0.44-3.96,2.38-8.92,5.15-10.56C77.68,71.35,79.77,71.21,80.41,73.13z M64.77,87.64c-0.27,0.14-0.5,0.18-0.77,0.42
		c-1.73,1.58-4.5,3.18-4.38,6.32c0.07,2.33,1.76,2,2.85,0.96C64.46,93.39,64.75,90.62,64.77,87.64z M79.02,72.68
		c-0.88-0.29-1.68,0.64-2.14,1.46c-1.11,1.98-1.55,4.21-2.08,6.45l0.8-0.62c1.56-1.28,3.29-2.86,3.93-5.27
		C79.75,73.81,79.97,72.96,79.02,72.68z"/>
	<path class="st17" d="M88.96,88.78c-1.06,0.96-1.75,2.54-3.23,2.94c-0.15,0.88,0.5,2.36,0.07,3.21c-0.76,1.52-1.35,4.08-2.79,4.37
		c-0.66,0.13-3.27-0.52-4.42-1.53c-0.62-0.55-1-2.23-1.42-2.93c-0.52-0.9-0.2-2.63-0.19-3.68c0.02-0.81,0.24-1.78,0.41-2.14
		c0.74-1.57,1.16-2.56,2.12-3.66c0.93-1,1.86-1.69,3.25-1.71c0.57-0.01,1.25-0.06,1.72,0.17c0.27,0.1,1.09,0.59,1.06,0.79
		c-0.2,0.14-0.47,0.18-0.71,0.18c-0.59-1.04-1.8-0.47-2.4,0.04c-0.7,0.59-1.05,1.57-1.44,2.32c-0.91,1.84-0.86,4.33-0.76,6.39
		c0.05,1.08,0.09,1.72,1.28,2c1.56,0.34,1.91-0.54,2.23-1.79c0.16-0.64,0.31-1.39,0.4-2.1l-0.54-0.09
		c-1.49-0.41-2.16-1.92-1.27-3.22c1.18-1.78,2.5,0.02,2.79,1.4c0.07,0.27,0.08,0.57,0.08,0.88c0.3-0.14,0.57-0.35,0.87-0.52
		c0.7-0.42,1.4-0.94,2-1.52c0.17-0.17,0.53-0.75,0.87-0.59C89.28,88.16,89.16,88.6,88.96,88.78z M84.23,90.82
		c0-0.2-0.01-0.44-0.04-0.64c-0.08-0.47-0.36-1.51-0.87-1.57c-0.71-0.05-0.86,0.96-0.62,1.43C82.95,90.5,83.69,90.79,84.23,90.82z"
		/>
	<path class="st17" d="M101.01,87.81c-0.32,1.19-0.7,2.34-1.02,3.6c-0.51,1.93-2.08,5.52-4.78,4.04c-1.09-0.59-1.18-1.77-1.3-2.85
		c-0.16-1.38-0.05-2.83-0.07-4.25c-0.32,1.22-0.66,2.61-1.15,3.77c-0.32,0.71-0.91,2.14-1.54,2.56c-0.93,0.62-2.84-0.25-3.23-1.4
		c-0.46-1.24-0.39-3.23-0.21-4.52c0.18-1.42,0.12-3.01,0.43-4.4c0.09-0.47,0.15-1.18,0.55-1.43c0.53-0.42,1.66,0.07,2.3-0.04
		c0.02,1.18-0.33,2.3-0.55,3.49c-0.22,1.22-0.4,2.47-0.54,3.69c-0.15,0.85-0.82,3.29,0.4,3.54c1.42,0.31,1.98-2.63,2.27-3.55
		c0.32-0.95,0.7-2.21,0.92-3.19c0.12-0.71,0.11-1.59,0.4-2.23c0.03-0.03,0.1-0.1,0.1-0.14c0.37-0.34,1.58-0.36,1.99-0.17
		c0.78,0.36,0.33,1.28,0.3,1.99c-0.01,1.22,0.01,2.33-0.17,3.55c-0.12,0.85-0.14,1.72-0.26,2.57c-0.09,0.47-0.28,1.15-0.14,1.62
		c0.36,1.38,2.03-0.13,2.44-0.77c1.15-1.81,1.28-2.55,1.8-3.84c0.19-0.54,0.48-1.56,0.82-2.04
		C101.22,86.75,101.17,87.23,101.01,87.81z"/>
	<path class="st17" d="M107.04,83.98c-0.03,0.4-0.32,1.02-0.89,1.23c-0.47,0.21-0.64,0.01-0.34-0.3c1.43-1.38-2.13-2.19-3.05-0.49
		c-0.95,1.81,1.36,2.58,2.4,4.01c1.31,1.8,1.2,4.91-1,6.43c-0.9,0.62-2.79,1.1-3.71,0.33c-0.74-0.62-0.55-1.5-0.07-2.28
		c0.19-0.3,0.69-0.64,1.1-0.71c0.23-0.04,0.71-0.05,0.84,0.09c0.31,0.3-0.1,0.3-0.33,0.41c-0.57,0.28-0.94,0.49-1.1,1.07
		c-0.13,0.47,0.18,0.91,0.93,0.93c1.76,0.11,1.73-1.65,1.78-2.43c0.03-0.51-0.13-1.35-0.44-1.82c-0.41-0.53-0.66-1.1-1.04-1.64
		c-0.42-0.57-0.62-0.83-0.83-1.44c-0.25-0.7-0.56-1.27-0.44-1.98c0.24-1.56,1.98-2.77,4.2-2.81C106.27,82.58,107.12,83,107.04,83.98
		z"/>
	<path class="st17" d="M118.12,88.33c0.04,0.3-0.36,0.82-0.45,1.12c-0.16,0.38-0.36,0.78-0.59,1.13c-0.43,0.78-0.95,1.5-1.38,2.28
		c-0.99,1.6-1.72,4.05-3.7,4.45c-0.94,0.22-2.09,0-2.88-0.69c-0.96-0.79-1.15-2.38-1.55-3.45c-0.28-0.81-0.26-1.65-0.25-2.49
		c-0.01-0.81-0.1-1.75,0.13-2.53c0.32-1.22,0.66-2.64,1.46-3.57c0.7-0.75,1.47-0.87,2.41-1.33c1.67-0.81,3.68,0,3.95,1.92
		c0.27,1.89-1.7,3.44-3.13,4.38c-0.67,0.42-1.44,0.67-2.14,0.98c-0.13,0.04-0.27,0.11-0.37,0.18c-0.01,1.22,0.17,2.22,0.6,3.37
		c0.46,1.21,1.13,3.09,2.56,1.64c2.09-2.06,3.15-4.92,4.66-7.34C117.68,88.31,117.88,88.24,118.12,88.33z M109.63,89.7
		c0.23-0.11,0.47-0.14,0.64-0.18c1.62-0.33,1.51-0.8,2.33-1.9c0.33-0.44,0.59-0.82,0.86-1.33c0.39-0.82,0.83-2.51-0.52-2.66
		C110.68,84.25,109.8,87.43,109.63,89.7z"/>
	<path class="st17" d="M133.44,89.81c-1.08,0.94-2.4,2.33-3.88,2.7c-0.3,1.56-0.08,1.18-0.2,2.94c-0.1,1.51-0.82,3.64-2.95,3.91
		c-0.7,0.09-1.99-0.06-3.29-0.75c-0.74-0.37-1.59-1.7-2-2.41c-0.51-0.91-0.24-3.01-0.2-4.06c0.03-0.81,0.76-1.78,0.93-2.52
		c0.34-1.38,1.22-2.31,2.2-3.39c0.94-0.98,1.89-1.65,3.27-1.65c0.57,0,1.25-0.03,1.72,0.2c0.27,0.1,1.08,0.61,1.05,0.81
		c-0.2,0.13-0.47,0.17-0.71,0.17c-0.57-1.05-1.79-0.51-2.4,0c-0.71,0.57-1.08,1.55-1.48,2.3c-0.95,1.82-1.32,4.02-1.25,6.07
		c0.03,1.08,0.42,1.77,1.61,2.07c1.55,0.37,1.94-0.25,2.28-1.5c0.17-0.64,0.34-1.38,0.44-2.09l-0.54-0.1
		c-1.49-0.44-2.13-1.96-1.22-3.24c1.22-1.76,2.5,0.07,2.77,1.45c0.07,0.27,0.07,0.57,0.07,0.88c0.3-0.14,0.57-0.34,0.88-0.51
		c0.71-0.4,1.42-0.91,2.02-1.48c0.17-0.17,0.54-0.74,0.88-0.57C133.78,89.2,133.64,89.64,133.44,89.81z M128.68,91.76
		c0-0.2,0-0.44-0.03-0.64c-0.07-0.47-0.34-1.52-0.84-1.59c-0.71-0.07-0.88,0.95-0.64,1.42C127.4,91.43,128.14,91.73,128.68,91.76z"
		/>
	<path class="st17" d="M142.07,90.32c-0.88,1.72-1.62,3.61-3,5.03c-0.44,0.47-1.01,0.81-1.62,0.94c0,0.61,0,1.18,0.03,1.79
		c0.07,1.49,0.07,3,0.03,4.49c0,1.25-0.14,3.27-1.18,4.08c-0.44,0.34-1.05,0.81-1.62,0.64c-1.21-0.34-2.23-1.45-2.6-4.05
		c-0.2-1.35-0.41-2.6-0.44-3.95c-0.03-2.5,0.03-5.06,0.37-7.53c0.27-2.13,0.81-4.15,1.11-6.24c0.27-1.82,1.08-3.41,1.62-5.16
		c0.24-0.67,0.37-1.42,0.71-2.06c0.2-0.34,0.98-1.32,1.01-1.32c0.1-0.34,1.11-1.25,1.55-1.52c0.57-0.37,1.22-0.57,1.92-0.51
		c3.24,0.34-0.51,6.14-1.18,7.29c-0.78,1.32-1.92,2.4-2.77,3.71c-0.14,0.2-0.4,0.84-0.68,1.45l-0.47,2.46
		c-0.1,0.61-0.2,1.18-0.34,1.75c0.3-0.27,0.57-0.37,0.94-0.47c1.52,0.54,1.48,1.76,1.76,3.04c0.07,0.37,0.1,0.78,0.13,1.15
		c1.62-0.24,2.5-2.33,3.14-3.78c0.24-0.54,0.74-2.13,1.32-2.4C142.74,88.7,142.27,89.98,142.07,90.32z M136.56,103.48
		c0-1.35-0.07-2.67-0.07-4.02c0-1.05,0-2.09-0.1-3.14c-0.3-0.03-0.64-0.17-0.95-0.34c-0.54-0.3-1.15-0.61-1.45-1.18
		c-0.24,1.75-0.41,3.51-0.3,5.3c0.07,1.45,0.13,3,0.4,4.42c0.2,0.94,0.37,1.38,1.15,1.72C136.29,106.72,136.56,104.46,136.56,103.48
		z M134.91,94.13c0.2,0.54,0.71,0.88,1.22,1.08c0.07,0,0.14,0.03,0.2,0.07c-0.1-0.94-0.44-3.27-1.25-2.73
		C134.71,92.81,134.81,93.79,134.91,94.13z M135.75,85.49l0.1-0.24c0.51-1.01,1.11-1.82,1.79-2.73c0.61-0.81,1.11-1.75,1.55-2.67
		c0.44-0.84,0.98-1.99,1.08-2.94c0.1-1.11-0.51-1.82-1.35-0.78c-0.78,0.98-1.38,2.09-1.72,3.31
		C136.63,81.44,136.16,83.46,135.75,85.49z"/>
	<path class="st10" d="M181.88,104.36c-0.1,0.88-0.97,2.19-2.62,2.63c-1.36,0.44-1.84,0-0.97-0.66c4.18-2.92-6.02-4.82-8.74-1.17
		c-2.81,3.87,3.79,5.62,6.7,8.76c3.69,3.94,3.2,10.65-3.21,13.86c-2.62,1.31-7.86,2.04-10.68,0.58c-2.23-1.17-2.23-3.65-0.48-5.04
		c0.68-0.58,2.43-1.24,3.59-1.39c0.68-0.07,2.04-0.07,2.43,0.22c0.88,0.66-0.29,0.66-0.97,0.88c-1.65,0.58-2.72,1.02-3.2,2.26
		c-0.39,1.02,0.49,1.97,2.62,2.04c5.05,0.29,5.05-3.5,5.24-5.18c0.1-1.09-0.29-2.92-1.16-3.94c-1.17-1.17-1.84-2.41-2.91-3.58
		c-1.17-1.24-1.75-1.82-2.33-3.14c-0.68-1.53-1.55-2.77-1.16-4.3c0.78-3.36,5.83-5.91,12.23-5.91
		C179.74,101.3,182.17,102.25,181.88,104.36z"/>
</g>
</svg>
